<svg width="1590" height="693" viewBox="0 0 1590 693" fill="none" xmlns="http://www.w3.org/2000/svg">
<path d="M710.533 372.064V330.023C710.533 324.262 709.41 318.842 707.164 313.764C705.016 308.588 702.037 304.096 698.229 300.287C694.42 296.479 689.928 293.5 684.752 291.352C679.674 289.105 674.254 287.982 668.492 287.982C662.73 287.982 657.262 289.105 652.086 291.352C647.008 293.5 642.564 296.479 638.756 300.287C634.947 304.096 631.92 308.588 629.674 313.764C627.525 318.842 626.451 324.262 626.451 330.023V372.064H710.533ZM752.574 456H710.533V413.959H626.451V456H584.557V330.023C584.557 318.402 586.754 307.514 591.148 297.357C595.543 287.104 601.5 278.168 609.02 270.551C616.637 262.934 625.523 256.928 635.68 252.533C645.934 248.139 656.871 245.941 668.492 245.941C680.113 245.941 691.002 248.139 701.158 252.533C711.412 256.928 720.348 262.934 727.965 270.551C735.582 278.168 741.588 287.104 745.982 297.357C750.377 307.514 752.574 318.402 752.574 330.023V456ZM930.787 456H888.893V287.982H825.758V245.941H993.775V287.982H930.787V456ZM1118.08 456H1076.04V245.941H1118.08V456ZM1385.5 350.971C1385.5 360.639 1384.23 369.965 1381.7 378.949C1379.25 387.836 1375.74 396.186 1371.15 403.998C1366.56 411.713 1361.09 418.793 1354.74 425.238C1348.39 431.586 1341.31 437.055 1333.5 441.645C1325.69 446.234 1317.29 449.799 1308.31 452.338C1299.42 454.779 1290.14 456 1280.47 456H1217.19V245.941H1280.47C1290.14 245.941 1299.42 247.211 1308.31 249.75C1317.29 252.191 1325.69 255.707 1333.5 260.297C1341.31 264.887 1348.39 270.404 1354.74 276.85C1361.09 283.197 1366.56 290.277 1371.15 298.09C1375.74 305.805 1379.25 314.154 1381.7 323.139C1384.23 332.025 1385.5 341.303 1385.5 350.971ZM1343.46 350.971C1343.46 342.279 1341.8 334.125 1338.48 326.508C1335.26 318.891 1330.77 312.25 1325.01 306.586C1319.34 300.824 1312.65 296.283 1304.94 292.963C1297.32 289.643 1289.17 287.982 1280.47 287.982H1259.53V413.959H1280.47C1289.17 413.959 1297.32 412.348 1304.94 409.125C1312.65 405.805 1319.34 401.312 1325.01 395.648C1330.77 389.887 1335.26 383.197 1338.48 375.58C1341.8 367.865 1343.46 359.662 1343.46 350.971Z" fill="#73CDFF"/>
<path fill-rule="evenodd" clip-rule="evenodd" d="M308.589 168.715C303.256 157.095 286.745 157.095 281.412 168.715L141.912 472.67C137.366 482.574 144.602 493.857 155.5 493.857H434.501C445.398 493.857 452.634 482.574 448.089 472.67L308.589 168.715ZM294.5 453.107C325.704 453.107 351 427.811 351 396.607C351 365.403 325.704 340.107 294.5 340.107C263.296 340.107 238 365.403 238 396.607C238 427.811 263.296 453.107 294.5 453.107Z" fill="#73CDFF"/>
<g filter="url(#filter0_d_937_206)">
<path d="M189.876 314.984L201.138 307.236C184.076 313.654 111.914 336.301 89.3832 369.732C52.8609 423.922 110.465 426.563 173.738 424.718C237.011 422.873 384.754 360.231 419.626 337.979C451.993 317.326 510.57 269.983 403.554 278.016C407.497 278.644 477.055 277.412 447.487 305.126C402.119 347.648 203.858 403.988 141.588 392.424C91.7729 383.172 165.78 331.508 189.876 314.984Z" fill="#F9C53A"/>
</g>
<defs>
<filter id="filter0_d_937_206" x="48" y="247.107" width="507" height="268" filterUnits="userSpaceOnUse" color-interpolation-filters="sRGB">
<feFlood flood-opacity="0" result="BackgroundImageFix"/>
<feColorMatrix in="SourceAlpha" type="matrix" values="0 0 0 0 0 0 0 0 0 0 0 0 0 0 0 0 0 0 127 0" result="hardAlpha"/>
<feOffset dx="30" dy="30"/>
<feGaussianBlur stdDeviation="30"/>
<feComposite in2="hardAlpha" operator="out"/>
<feColorMatrix type="matrix" values="0 0 0 0 0 0 0 0 0 0 0 0 0 0 0 0 0 0 0.25 0"/>
<feBlend mode="normal" in2="BackgroundImageFix" result="effect1_dropShadow_937_206"/>
<feBlend mode="normal" in="SourceGraphic" in2="effect1_dropShadow_937_206" result="shape"/>
</filter>
</defs>
</svg>
