<svg width="1476" height="693" viewBox="0 0 1476 693" fill="none" xmlns="http://www.w3.org/2000/svg">
<path fill-rule="evenodd" clip-rule="evenodd" d="M207 517.5V193H316C347.833 193.667 411.5 210.6 411.5 273C411.5 318.392 387.614 332.931 376.082 339.95L376 340C403.5 348.521 444.3 390.9 425.5 452.5C407.951 510 344 517.5 327 517.5H207ZM338 293C338 314.539 320.539 332 299 332C277.461 332 260 314.539 260 293C260 271.461 277.461 254 299 254C320.539 254 338 271.461 338 293ZM346 422C346 447.957 324.957 469 299 469C273.043 469 252 447.957 252 422C252 396.043 273.043 375 299 375C324.957 375 346 396.043 346 422Z" fill="#F9C53A"/>
<path d="M754.5 412.012C754.5 420.703 752.84 428.857 749.52 436.475C746.199 444.092 741.658 450.781 735.896 456.543C730.232 462.207 723.592 466.699 715.975 470.02C708.357 473.34 700.203 475 691.512 475H586.482V264.941H691.512C700.203 264.941 708.357 266.602 715.975 269.922C723.592 273.242 730.232 277.783 735.896 283.545C741.658 289.209 746.199 295.85 749.52 303.467C752.84 311.084 754.5 319.238 754.5 327.93C754.5 331.836 753.963 335.84 752.889 339.941C751.814 344.043 750.301 347.998 748.348 351.807C746.395 355.615 744.051 359.082 741.316 362.207C738.582 365.332 735.555 367.92 732.234 369.971C735.652 371.826 738.729 374.365 741.463 377.588C744.197 380.713 746.541 384.18 748.494 387.988C750.447 391.797 751.912 395.801 752.889 400C753.963 404.102 754.5 408.105 754.5 412.012ZM628.523 432.959H691.512C694.441 432.959 697.176 432.422 699.715 431.348C702.254 430.273 704.451 428.809 706.307 426.953C708.26 425 709.773 422.754 710.848 420.215C711.922 417.676 712.459 414.941 712.459 412.012C712.459 409.082 711.922 406.348 710.848 403.809C709.773 401.27 708.26 399.072 706.307 397.217C704.451 395.264 702.254 393.75 699.715 392.676C697.176 391.602 694.441 391.064 691.512 391.064H628.523V432.959ZM628.523 349.023H691.512C694.441 349.023 697.176 348.486 699.715 347.412C702.254 346.338 704.451 344.873 706.307 343.018C708.26 341.064 709.773 338.818 710.848 336.279C711.922 333.643 712.459 330.859 712.459 327.93C712.459 325 711.922 322.266 710.848 319.727C709.773 317.188 708.26 314.99 706.307 313.135C704.451 311.182 702.254 309.668 699.715 308.594C697.176 307.52 694.441 306.982 691.512 306.982H628.523V349.023ZM969.92 391.064V349.023C969.92 343.262 968.797 337.842 966.551 332.764C964.402 327.588 961.424 323.096 957.615 319.287C953.807 315.479 949.314 312.5 944.139 310.352C939.061 308.105 933.641 306.982 927.879 306.982C922.117 306.982 916.648 308.105 911.473 310.352C906.395 312.5 901.951 315.479 898.143 319.287C894.334 323.096 891.307 327.588 889.061 332.764C886.912 337.842 885.838 343.262 885.838 349.023V391.064H969.92ZM1011.96 475H969.92V432.959H885.838V475H843.943V349.023C843.943 337.402 846.141 326.514 850.535 316.357C854.93 306.104 860.887 297.168 868.406 289.551C876.023 281.934 884.91 275.928 895.066 271.533C905.32 267.139 916.258 264.941 927.879 264.941C939.5 264.941 950.389 267.139 960.545 271.533C970.799 275.928 979.734 281.934 987.352 289.551C994.969 297.168 1000.97 306.104 1005.37 316.357C1009.76 326.514 1011.96 337.402 1011.96 349.023V475ZM1150.48 475H1108.44V264.941H1150.48V475Z" fill="#F9C53A"/>
<g filter="url(#filter0_d_833_41)">
<path d="M207 348V344C207 342.5 207 344.5 207 341.768C178.468 352.387 133.351 371.448 116.383 396.624C79.8609 450.814 137.465 453.455 200.738 451.61C264.011 449.766 411.754 387.124 446.626 364.872C478.993 344.218 537.57 296.875 430.554 304.908C434.497 305.537 504.055 304.305 474.487 332.018C429.119 374.541 230.858 430.881 168.588 419.316C118.773 410.065 182.904 364.524 207 348Z" fill="#F9C53A"/>
</g>
<defs>
<filter id="filter0_d_833_41" x="75" y="274" width="507" height="268" filterUnits="userSpaceOnUse" color-interpolation-filters="sRGB">
<feFlood flood-opacity="0" result="BackgroundImageFix"/>
<feColorMatrix in="SourceAlpha" type="matrix" values="0 0 0 0 0 0 0 0 0 0 0 0 0 0 0 0 0 0 127 0" result="hardAlpha"/>
<feOffset dx="30" dy="30"/>
<feGaussianBlur stdDeviation="30"/>
<feComposite in2="hardAlpha" operator="out"/>
<feColorMatrix type="matrix" values="0 0 0 0 0 0 0 0 0 0 0 0 0 0 0 0 0 0 0.25 0"/>
<feBlend mode="normal" in2="BackgroundImageFix" result="effect1_dropShadow_833_41"/>
<feBlend mode="normal" in="SourceGraphic" in2="effect1_dropShadow_833_41" result="shape"/>
</filter>
</defs>
</svg>
