<svg width="1791" height="693" viewBox="0 0 1791 693" fill="none" xmlns="http://www.w3.org/2000/svg">
<path d="M1193.5 393.012C1193.5 401.703 1191.84 409.857 1188.52 417.475C1185.2 425.092 1180.66 431.781 1174.9 437.543C1169.23 443.207 1162.59 447.699 1154.97 451.02C1147.36 454.34 1139.2 456 1130.51 456H1025.48V245.941H1130.51C1139.2 245.941 1147.36 247.602 1154.97 250.922C1162.59 254.242 1169.23 258.783 1174.9 264.545C1180.66 270.209 1185.2 276.85 1188.52 284.467C1191.84 292.084 1193.5 300.238 1193.5 308.93C1193.5 312.836 1192.96 316.84 1191.89 320.941C1190.81 325.043 1189.3 328.998 1187.35 332.807C1185.39 336.615 1183.05 340.082 1180.32 343.207C1177.58 346.332 1174.55 348.92 1171.23 350.971C1174.65 352.826 1177.73 355.365 1180.46 358.588C1183.2 361.713 1185.54 365.18 1187.49 368.988C1189.45 372.797 1190.91 376.801 1191.89 381C1192.96 385.102 1193.5 389.105 1193.5 393.012ZM1067.52 413.959H1130.51C1133.44 413.959 1136.18 413.422 1138.71 412.348C1141.25 411.273 1143.45 409.809 1145.31 407.953C1147.26 406 1148.77 403.754 1149.85 401.215C1150.92 398.676 1151.46 395.941 1151.46 393.012C1151.46 390.082 1150.92 387.348 1149.85 384.809C1148.77 382.27 1147.26 380.072 1145.31 378.217C1143.45 376.264 1141.25 374.75 1138.71 373.676C1136.18 372.602 1133.44 372.064 1130.51 372.064H1067.52V413.959ZM1067.52 330.023H1130.51C1133.44 330.023 1136.18 329.486 1138.71 328.412C1141.25 327.338 1143.45 325.873 1145.31 324.018C1147.26 322.064 1148.77 319.818 1149.85 317.279C1150.92 314.643 1151.46 311.859 1151.46 308.93C1151.46 306 1150.92 303.266 1149.85 300.727C1148.77 298.188 1147.26 295.99 1145.31 294.135C1143.45 292.182 1141.25 290.668 1138.71 289.594C1136.18 288.52 1133.44 287.982 1130.51 287.982H1067.52V330.023ZM1408.92 372.064V330.023C1408.92 324.262 1407.8 318.842 1405.55 313.764C1403.4 308.588 1400.42 304.096 1396.62 300.287C1392.81 296.479 1388.31 293.5 1383.14 291.352C1378.06 289.105 1372.64 287.982 1366.88 287.982C1361.12 287.982 1355.65 289.105 1350.47 291.352C1345.39 293.5 1340.95 296.479 1337.14 300.287C1333.33 304.096 1330.31 308.588 1328.06 313.764C1325.91 318.842 1324.84 324.262 1324.84 330.023V372.064H1408.92ZM1450.96 456H1408.92V413.959H1324.84V456H1282.94V330.023C1282.94 318.402 1285.14 307.514 1289.54 297.357C1293.93 287.104 1299.89 278.168 1307.41 270.551C1315.02 262.934 1323.91 256.928 1334.07 252.533C1344.32 248.139 1355.26 245.941 1366.88 245.941C1378.5 245.941 1389.39 248.139 1399.54 252.533C1409.8 256.928 1418.73 262.934 1426.35 270.551C1433.97 278.168 1439.97 287.104 1444.37 297.357C1448.76 307.514 1450.96 318.402 1450.96 330.023V456ZM1589.48 456H1547.44V245.941H1589.48V456Z" fill="#F9C53A"/>
<path d="M654.25 436L713 359.5L712.5 376.25L656.5 302.5H691.25L730.5 355H717.25L756.75 302.5H790.5L734 376.25L734.25 359.5L792.75 436H757.5L716.25 380.25L729.25 382L688.75 436H654.25ZM897.666 437.75C883.666 437.75 871.166 434.833 860.166 429C849.333 423 840.833 414.833 834.666 404.5C828.499 394.167 825.416 382.417 825.416 369.25C825.416 355.917 828.499 344.167 834.666 334C840.833 323.667 849.333 315.583 860.166 309.75C871.166 303.917 883.666 301 897.666 301C910.666 301 922.083 303.667 931.916 309C941.916 314.167 949.499 321.833 954.666 332L930.666 346C926.666 339.667 921.749 335 915.916 332C910.249 329 904.083 327.5 897.416 327.5C889.749 327.5 882.833 329.167 876.666 332.5C870.499 335.833 865.666 340.667 862.166 347C858.666 353.167 856.916 360.583 856.916 369.25C856.916 377.917 858.666 385.417 862.166 391.75C865.666 397.917 870.499 402.667 876.666 406C882.833 409.333 889.749 411 897.416 411C904.083 411 910.249 409.5 915.916 406.5C921.749 403.5 926.666 398.833 930.666 392.5L954.666 406.5C949.499 416.5 941.916 424.25 931.916 429.75C922.083 435.083 910.666 437.75 897.666 437.75Z" fill="#F9C53A"/>
<path d="M151.102 286.585C145.633 281.116 145.633 272.249 151.102 266.78C156.571 261.311 165.438 261.311 170.907 266.78L215.468 311.341C220.937 316.81 220.937 325.677 215.468 331.146C209.999 336.615 201.132 336.615 195.663 331.146L151.102 286.585Z" fill="#F9C53A"/>
<path d="M245.176 380.659C239.707 375.19 239.707 366.323 245.176 360.854C250.645 355.385 259.512 355.385 264.981 360.854L309.542 405.415C315.012 410.884 315.012 419.751 309.542 425.22C304.073 430.689 295.206 430.689 289.737 425.22L245.176 380.659Z" fill="#F9C53A"/>
<path d="M289.737 266.78C295.206 261.311 304.073 261.311 309.542 266.78C315.012 272.249 315.012 281.116 309.542 286.585L264.981 331.146C259.512 336.615 250.645 336.615 245.176 331.146C239.707 325.677 239.707 316.81 245.176 311.341L289.737 266.78Z" fill="#F9C53A"/>
<path d="M195.663 360.854C201.132 355.385 209.999 355.385 215.468 360.854C220.937 366.323 220.937 375.19 215.468 380.659L170.907 425.22C165.438 430.689 156.571 430.689 151.102 425.22C145.633 419.751 145.633 410.884 151.102 405.415L195.663 360.854Z" fill="#F9C53A"/>
<path fill-rule="evenodd" clip-rule="evenodd" d="M334.651 506V186H442.14C473.532 186.657 536.316 203.356 536.316 264.891C536.316 309.653 512.761 323.991 501.389 330.912L501.308 330.961C528.427 339.364 568.661 381.156 550.121 441.901C532.816 498.604 469.752 506 452.987 506H334.651ZM463.808 284.617C463.808 305.857 446.589 323.076 425.349 323.076C404.108 323.076 386.89 305.857 386.89 284.617C386.89 263.376 404.108 246.157 425.349 246.157C446.589 246.157 463.808 263.376 463.808 284.617ZM471.667 411.848C471.667 437.445 450.916 458.196 425.319 458.196C399.721 458.196 378.971 437.445 378.971 411.848C378.971 386.251 399.721 365.5 425.319 365.5C450.916 365.5 471.667 386.251 471.667 411.848Z" fill="#F9C53A"/>
</svg>
