<svg width="400" height="400" viewBox="0 0 400 400" fill="none" xmlns="http://www.w3.org/2000/svg">
<circle cx="200" cy="200" r="200" fill="black"/>
<path d="M50.3664 154.165C46.2659 150.065 46.2659 143.417 50.3664 139.316C54.4669 135.216 61.1151 135.216 65.2156 139.316L98.6264 172.727C102.727 176.827 102.727 183.476 98.6264 187.576C94.5259 191.677 87.8777 191.677 83.7772 187.576L50.3664 154.165Z" fill="#FFF846"/>
<path d="M120.9 224.699C116.8 220.599 116.8 213.95 120.9 209.85C125.001 205.749 131.649 205.749 135.749 209.85L169.16 243.261C173.261 247.361 173.261 254.009 169.16 258.11C165.06 262.21 158.412 262.21 154.311 258.11L120.9 224.699Z" fill="#FFF846"/>
<path d="M154.311 139.316C158.412 135.216 165.06 135.216 169.16 139.316C173.261 143.417 173.261 150.065 169.16 154.165L135.749 187.576C131.649 191.677 125.001 191.677 120.9 187.576C116.8 183.476 116.8 176.827 120.9 172.727L154.311 139.316Z" fill="#FFF846"/>
<path d="M83.7772 209.85C87.8777 205.749 94.5259 205.749 98.6264 209.85C102.727 213.95 102.727 220.599 98.6264 224.699L65.2156 258.11C61.1151 262.21 54.4669 262.21 50.3664 258.11C46.2659 254.009 46.2659 247.361 50.3664 243.261L83.7772 209.85Z" fill="#FFF846"/>
<path fill-rule="evenodd" clip-rule="evenodd" d="M187.985 318.676V78.75H268.577C292.114 79.2429 339.187 91.7629 339.187 137.9C339.187 171.461 321.526 182.211 313 187.401L312.939 187.438C333.272 193.738 363.438 225.072 349.538 270.617C336.563 313.131 289.279 318.676 276.71 318.676H187.985ZM284.823 152.69C284.823 168.615 271.913 181.525 255.988 181.525C240.062 181.525 227.152 168.615 227.152 152.69C227.152 136.764 240.062 123.854 255.988 123.854C271.913 123.854 284.823 136.764 284.823 152.69ZM290.715 248.084C290.715 267.276 275.157 282.834 255.965 282.834C236.773 282.834 221.215 267.276 221.215 248.084C221.215 228.892 236.773 213.333 255.965 213.333C275.157 213.333 290.715 228.892 290.715 248.084Z" fill="#FFF846"/>
</svg>
