<svg width="1500" height="1350" viewBox="0 0 1500 1350" fill="none" xmlns="http://www.w3.org/2000/svg">
<g filter="url(#filter0_d_689_768)">
<path d="M616.477 412.008C654.147 303.048 734.45 205.936 769.892 171C827.005 217.581 887.527 331.504 910.65 382.642C887.697 417.747 836.828 494.032 816.98 518.336C792.171 548.715 762.298 602.891 679.768 690.991C613.743 761.471 570.233 769.977 556.731 765.42C551.162 655.548 569.389 548.209 616.477 412.008Z" fill="black"/>
<path d="M940.016 465.172C974.446 569.677 976.303 709.556 972.927 766.433C935.459 767.952 886.346 766.433 860.524 740.104C834.702 713.775 837.233 654.029 851.41 595.803C862.752 549.221 915.207 489.307 940.016 465.172Z" fill="black"/>
<path d="M977.055 328.439C1007.98 346 1066.47 308.696 1096.79 283.686C1049.77 328.044 1018.54 359.378 1029.48 391.293C1030.74 394.272 1031.46 396.123 1031.46 396.123C1030.69 394.51 1030.03 392.901 1029.48 391.293C1025.95 382.951 1018.12 365.758 1009.69 355.534C1000.74 344.683 983.948 333.011 977.055 328.439C975.997 327.838 974.972 327.173 973.981 326.442C973.981 326.442 975.134 327.165 977.055 328.439Z" fill="#F9C53A"/>
<g filter="url(#filter1_d_689_768)">
<path fill-rule="evenodd" clip-rule="evenodd" d="M1095.97 282.691L1097.67 284.618C1074.14 306.819 1054.68 325.652 1042.45 342.896C1030.25 360.106 1025.44 375.46 1030.69 390.829C1031.31 392.308 1031.8 393.507 1032.14 394.341C1032.31 394.761 1032.44 395.089 1032.53 395.312C1032.57 395.423 1032.6 395.508 1032.63 395.566L1032.65 395.632L1032.66 395.655L1030.3 396.672C1029.52 395.031 1028.85 393.391 1028.28 391.749C1024.73 383.381 1016.98 366.393 1008.7 356.349C999.902 345.684 983.313 334.13 976.383 329.531C975.295 328.911 974.239 328.226 973.219 327.472L974.666 325.349L974.667 325.349L974.681 325.358L974.722 325.384C974.759 325.407 974.812 325.441 974.882 325.485C975.023 325.574 975.229 325.706 975.495 325.877C976.021 326.216 976.781 326.71 977.73 327.339C985.124 331.524 994.249 332.487 1004.37 331.094C1014.51 329.699 1025.54 325.953 1036.61 320.855C1058.76 310.659 1080.87 295.151 1095.97 282.691ZM986.284 333.266C994.185 338.981 1004.34 347.029 1010.68 354.712C1016.51 361.78 1022.03 372.075 1026.07 380.557C1025.37 367.786 1030.74 354.973 1040.36 341.408C1049.65 328.306 1063.01 314.351 1079 298.86C1066.52 307.68 1052.13 316.542 1037.69 323.191C1026.48 328.35 1015.2 332.2 1004.72 333.642C998.224 334.536 991.999 334.509 986.284 333.266Z" fill="#F9C53A"/>
</g>
<g filter="url(#filter2_d_689_768)">
<path d="M571.496 445.469L585.09 434.999C564.494 443.671 477.387 474.277 450.19 519.453C406.104 592.682 475.638 596.251 552.015 593.758C628.392 591.265 804.947 503.955 848.828 476.544C883.932 454.616 969.019 383.614 995.321 363.627C979.822 372.706 935.62 399.69 882.802 434.999C816.779 479.135 588.373 565.745 513.207 550.117C453.075 537.615 542.409 467.798 571.496 445.469Z" fill="#F9C53A"/>
</g>
</g>
<path d="M239.681 1011.16V977.818C239.681 973.249 238.791 968.951 237.009 964.924C235.306 960.819 232.943 957.257 229.923 954.236C226.903 951.216 223.34 948.854 219.236 947.15C215.208 945.369 210.91 944.478 206.341 944.478C201.772 944.478 197.435 945.369 193.33 947.15C189.303 948.854 185.779 951.216 182.759 954.236C179.739 957.257 177.338 960.819 175.556 964.924C173.853 968.951 173.001 973.249 173.001 977.818V1011.16H239.681ZM273.021 1077.72H239.681V1044.38H173.001V1077.72H139.777V977.818C139.777 968.602 141.519 959.967 145.004 951.913C148.489 943.781 153.214 936.695 159.177 930.654C165.218 924.613 172.265 919.85 180.319 916.365C188.451 912.88 197.125 911.138 206.341 911.138C215.557 911.138 224.192 912.88 232.246 916.365C240.378 919.85 247.464 924.613 253.505 930.654C259.546 936.695 264.309 943.781 267.794 951.913C271.279 959.967 273.021 968.602 273.021 977.818V1077.72ZM374.022 1077.72H301.534V1046.12H374.022C376.191 1046.12 378.05 1045.35 379.598 1043.8C381.147 1042.25 381.922 1040.39 381.922 1038.23C381.922 1035.98 381.147 1034.51 379.598 1033.81C378.05 1033.11 376.191 1032.77 374.022 1032.77H341.031C335.532 1032.77 330.382 1031.72 325.58 1029.63C320.779 1027.54 316.597 1024.71 313.034 1021.15C309.472 1017.51 306.645 1013.29 304.554 1008.49C302.54 1003.68 301.534 998.535 301.534 993.036C301.534 987.538 302.54 982.388 304.554 977.586C306.645 972.784 309.472 968.602 313.034 965.04C316.597 961.477 320.779 958.689 325.58 956.676C330.382 954.585 335.532 953.539 341.031 953.539H405.272V985.137H341.031C338.862 985.137 337.004 985.911 335.455 987.46C333.906 989.009 333.131 990.868 333.131 993.036C333.131 995.282 333.906 997.218 335.455 998.845C337.004 1000.39 338.862 1001.17 341.031 1001.17H374.022C379.444 1001.17 384.555 1002.1 389.357 1003.96C394.158 1005.74 398.34 1008.25 401.903 1011.51C405.465 1014.76 408.292 1018.67 410.383 1023.24C412.474 1027.81 413.52 1032.8 413.52 1038.23C413.52 1043.72 412.474 1048.87 410.383 1053.68C408.292 1058.4 405.465 1062.58 401.903 1066.22C398.34 1069.78 394.158 1072.61 389.357 1074.7C384.555 1076.72 379.444 1077.72 374.022 1077.72ZM500 1077.72C492.332 1077.72 485.13 1076.29 478.392 1073.42C471.655 1070.48 465.73 1066.49 460.619 1061.46C455.585 1056.35 451.596 1050.42 448.653 1043.69C445.788 1036.95 444.355 1029.75 444.355 1022.08V985.137H428.905V953.539H444.355V903.819H475.953V953.539H524.046V985.137H475.953V1022.08C475.953 1025.41 476.572 1028.54 477.811 1031.49C479.051 1034.35 480.754 1036.87 482.923 1039.04C485.091 1041.21 487.647 1042.95 490.59 1044.27C493.533 1045.51 496.669 1046.12 500 1046.12H524.046V1077.72H500ZM580.787 1077.72H549.074V953.307H556.741L567.196 968.06C572.307 963.413 578.116 959.851 584.621 957.373C591.126 954.817 597.864 953.539 604.834 953.539H632.831V985.137H604.834C601.504 985.137 598.367 985.756 595.425 986.996C592.482 988.235 589.926 989.938 587.757 992.107C585.589 994.275 583.885 996.831 582.646 999.774C581.407 1002.72 580.787 1005.85 580.787 1009.18V1077.72ZM692.127 919.502C692.127 922.445 691.547 925.194 690.385 927.75C689.301 930.306 687.79 932.551 685.854 934.488C683.918 936.346 681.634 937.856 679 939.018C676.445 940.102 673.695 940.645 670.752 940.645C667.81 940.645 665.022 940.102 662.388 939.018C659.833 937.856 657.587 936.346 655.651 934.488C653.792 932.551 652.282 930.306 651.12 927.75C650.036 925.194 649.494 922.445 649.494 919.502C649.494 916.636 650.036 913.926 651.12 911.37C652.282 908.737 653.792 906.491 655.651 904.632C657.587 902.696 659.833 901.186 662.388 900.102C665.022 898.94 667.81 898.359 670.752 898.359C673.695 898.359 676.445 898.94 679 900.102C681.634 901.186 683.918 902.696 685.854 904.632C687.79 906.491 689.301 908.737 690.385 911.37C691.547 913.926 692.127 916.636 692.127 919.502ZM686.667 1077.72H654.721V953.307H686.667V1077.72ZM838.318 1077.72H830.651L818.337 1060.65C815.316 1063.36 812.102 1065.91 808.695 1068.31C805.365 1070.64 801.841 1072.69 798.124 1074.47C794.406 1076.17 790.573 1077.53 786.623 1078.54C782.751 1079.54 778.801 1080.05 774.774 1080.05C766.023 1080.05 757.775 1078.42 750.03 1075.17C742.363 1071.84 735.625 1067.27 729.817 1061.46C724.086 1055.57 719.555 1048.64 716.225 1040.67C712.895 1032.61 711.23 1023.86 711.23 1014.41C711.23 1005.04 712.895 996.328 716.225 988.273C719.555 980.219 724.086 973.249 729.817 967.363C735.625 961.477 742.363 956.869 750.03 953.539C757.775 950.209 766.023 948.544 774.774 948.544C777.562 948.544 780.427 948.776 783.37 949.241C786.391 949.706 789.295 950.48 792.083 951.564C794.948 952.571 797.62 953.926 800.098 955.63C802.577 957.334 804.668 959.425 806.372 961.903V903.819H838.318V1077.72ZM806.372 1014.41C806.372 1010.07 805.52 1005.89 803.816 1001.87C802.189 997.76 799.944 994.159 797.078 991.061C794.213 987.886 790.844 985.369 786.971 983.51C783.177 981.574 779.111 980.606 774.774 980.606C770.437 980.606 766.332 981.381 762.46 982.93C758.665 984.479 755.335 986.724 752.47 989.667C749.682 992.533 747.474 996.057 745.848 1000.24C744.222 1004.42 743.409 1009.14 743.409 1014.41C743.409 1018.98 744.222 1023.32 745.848 1027.42C747.474 1031.53 749.682 1035.13 752.47 1038.23C755.335 1041.32 758.665 1043.76 762.46 1045.54C766.332 1047.33 770.437 1048.22 774.774 1048.22C779.111 1048.22 783.177 1047.29 786.971 1045.43C790.844 1043.49 794.213 1040.97 797.078 1037.88C799.944 1034.7 802.189 1031.1 803.816 1027.07C805.52 1022.97 806.372 1018.75 806.372 1014.41ZM1006.58 994.43C1006.58 1002.1 1005.57 1009.49 1003.56 1016.62C1001.62 1023.67 998.835 1030.29 995.196 1036.48C991.556 1042.6 987.219 1048.22 982.185 1053.33C977.151 1058.36 971.536 1062.7 965.34 1066.34C959.145 1069.98 952.484 1072.8 945.359 1074.82C938.312 1076.75 930.955 1077.72 923.288 1077.72H873.103V911.138H923.288C930.955 911.138 938.312 912.145 945.359 914.158C952.484 916.094 959.145 918.882 965.34 922.522C971.536 926.162 977.151 930.538 982.185 935.649C987.219 940.683 991.556 946.298 995.196 952.494C998.835 958.612 1001.62 965.233 1003.56 972.358C1005.57 979.406 1006.58 986.763 1006.58 994.43ZM973.24 994.43C973.24 987.538 971.923 981.071 969.29 975.03C966.734 968.989 963.172 963.723 958.603 959.231C954.111 954.662 948.806 951.061 942.688 948.428C936.647 945.795 930.18 944.478 923.288 944.478H906.676V1044.38H923.288C930.18 1044.38 936.647 1043.1 942.688 1040.55C948.806 1037.92 954.111 1034.35 958.603 1029.86C963.172 1025.29 966.734 1019.99 969.29 1013.95C971.923 1007.83 973.24 1001.32 973.24 994.43ZM1133.95 1011.16V977.818C1133.95 973.249 1133.06 968.951 1131.28 964.924C1129.58 960.819 1127.21 957.257 1124.19 954.236C1121.17 951.216 1117.61 948.854 1113.51 947.15C1109.48 945.369 1105.18 944.478 1100.61 944.478C1096.04 944.478 1091.7 945.369 1087.6 947.15C1083.57 948.854 1080.05 951.216 1077.03 954.236C1074.01 957.257 1071.61 960.819 1069.83 964.924C1068.12 968.951 1067.27 973.249 1067.27 977.818V1011.16H1133.95ZM1167.29 1077.72H1133.95V1044.38H1067.27V1077.72H1034.05V977.818C1034.05 968.602 1035.79 959.967 1039.27 951.913C1042.76 943.781 1047.48 936.695 1053.45 930.654C1059.49 924.613 1066.54 919.85 1074.59 916.365C1082.72 912.88 1091.39 911.138 1100.61 911.138C1109.83 911.138 1118.46 912.88 1126.52 916.365C1134.65 919.85 1141.73 924.613 1147.78 930.654C1153.82 936.695 1158.58 943.781 1162.06 951.913C1165.55 959.967 1167.29 968.602 1167.29 977.818V1077.72ZM1366.57 995.127C1366.57 1003.03 1365.53 1010.66 1363.43 1018.01C1361.42 1025.29 1358.55 1032.15 1354.84 1038.57C1351.12 1044.92 1346.63 1050.73 1341.36 1056C1336.1 1061.27 1330.29 1065.8 1323.94 1069.59C1317.59 1073.31 1310.73 1076.17 1303.38 1078.19C1296.02 1080.28 1288.39 1081.32 1280.49 1081.32C1272.59 1081.32 1264.96 1080.28 1257.61 1078.19C1250.33 1076.17 1243.47 1073.31 1237.04 1069.59C1230.69 1065.8 1224.88 1061.27 1219.62 1056C1214.35 1050.73 1209.82 1044.92 1206.03 1038.57C1202.31 1032.15 1199.4 1025.29 1197.31 1018.01C1195.3 1010.66 1194.29 1003.03 1194.29 995.127C1194.29 987.228 1195.3 979.599 1197.31 972.242C1199.4 964.885 1202.31 958.031 1206.03 951.68C1209.82 945.33 1214.35 939.522 1219.62 934.255C1224.88 928.989 1230.69 924.497 1237.04 920.78C1243.47 917.062 1250.33 914.197 1257.61 912.183C1264.96 910.092 1272.59 909.047 1280.49 909.047C1288.39 909.047 1296.02 910.092 1303.38 912.183C1310.73 914.197 1317.59 917.062 1323.94 920.78C1330.29 924.497 1336.1 928.989 1341.36 934.255C1346.63 939.522 1351.12 945.33 1354.84 951.68C1358.55 958.031 1361.42 964.885 1363.43 972.242C1365.53 979.599 1366.57 987.228 1366.57 995.127ZM1333.46 995.127C1333.46 987.847 1332.07 980.993 1329.28 974.566C1326.49 968.06 1322.7 962.445 1317.9 957.721C1313.17 952.92 1307.56 949.125 1301.05 946.337C1294.62 943.549 1287.77 942.155 1280.49 942.155C1273.13 942.155 1266.24 943.549 1259.81 946.337C1253.38 949.125 1247.77 952.92 1242.97 957.721C1238.17 962.445 1234.37 968.06 1231.58 974.566C1228.8 980.993 1227.4 987.847 1227.4 995.127C1227.4 1002.41 1228.8 1009.26 1231.58 1015.69C1234.37 1022.04 1238.17 1027.62 1242.97 1032.42C1247.77 1037.22 1253.38 1041.01 1259.81 1043.8C1266.24 1046.59 1273.13 1047.98 1280.49 1047.98C1287.77 1047.98 1294.62 1046.59 1301.05 1043.8C1307.56 1041.01 1313.17 1037.22 1317.9 1032.42C1322.7 1027.62 1326.49 1022.04 1329.28 1015.69C1332.07 1009.26 1333.46 1002.41 1333.46 995.127Z" fill="black"/>
<defs>
<filter id="filter0_d_689_768" x="431.38" y="165.931" width="681.501" height="616.116" filterUnits="userSpaceOnUse" color-interpolation-filters="sRGB">
<feFlood flood-opacity="0" result="BackgroundImageFix"/>
<feColorMatrix in="SourceAlpha" type="matrix" values="0 0 0 0 0 0 0 0 0 0 0 0 0 0 0 0 0 0 127 0" result="hardAlpha"/>
<feOffset dx="5.06915" dy="5.06915"/>
<feGaussianBlur stdDeviation="5.06915"/>
<feComposite in2="hardAlpha" operator="out"/>
<feColorMatrix type="matrix" values="0 0 0 0 0 0 0 0 0 0 0 0 0 0 0 0 0 0 0.25 0"/>
<feBlend mode="normal" in2="BackgroundImageFix" result="effect1_dropShadow_689_768"/>
<feBlend mode="normal" in="SourceGraphic" in2="effect1_dropShadow_689_768" result="shape"/>
</filter>
<filter id="filter1_d_689_768" x="954.209" y="263.682" width="200.492" height="190.018" filterUnits="userSpaceOnUse" color-interpolation-filters="sRGB">
<feFlood flood-opacity="0" result="BackgroundImageFix"/>
<feColorMatrix in="SourceAlpha" type="matrix" values="0 0 0 0 0 0 0 0 0 0 0 0 0 0 0 0 0 0 127 0" result="hardAlpha"/>
<feOffset dx="19.0093" dy="19.0093"/>
<feGaussianBlur stdDeviation="19.0093"/>
<feComposite in2="hardAlpha" operator="out"/>
<feColorMatrix type="matrix" values="0 0 0 0 0 0 0 0 0 0 0 0 0 0 0 0 0 0 0.25 0"/>
<feBlend mode="normal" in2="BackgroundImageFix" result="effect1_dropShadow_689_768"/>
<feBlend mode="normal" in="SourceGraphic" in2="effect1_dropShadow_689_768" result="shape"/>
</filter>
<filter id="filter2_d_689_768" x="417.44" y="344.618" width="634.909" height="306.695" filterUnits="userSpaceOnUse" color-interpolation-filters="sRGB">
<feFlood flood-opacity="0" result="BackgroundImageFix"/>
<feColorMatrix in="SourceAlpha" type="matrix" values="0 0 0 0 0 0 0 0 0 0 0 0 0 0 0 0 0 0 127 0" result="hardAlpha"/>
<feOffset dx="19.0093" dy="19.0093"/>
<feGaussianBlur stdDeviation="19.0093"/>
<feComposite in2="hardAlpha" operator="out"/>
<feColorMatrix type="matrix" values="0 0 0 0 0 0 0 0 0 0 0 0 0 0 0 0 0 0 0.25 0"/>
<feBlend mode="normal" in2="BackgroundImageFix" result="effect1_dropShadow_689_768"/>
<feBlend mode="normal" in="SourceGraphic" in2="effect1_dropShadow_689_768" result="shape"/>
</filter>
</defs>
</svg>
