<svg width="3278" height="1011" viewBox="0 0 3278 1011" fill="none" xmlns="http://www.w3.org/2000/svg">
<path d="M973.004 751.344H834.086V690.79H973.004C977.16 690.79 980.722 689.305 983.69 686.337C986.659 683.369 988.143 679.807 988.143 675.651C988.143 671.347 986.659 668.527 983.69 667.191C980.722 665.855 977.16 665.188 973.004 665.188H909.779C899.241 665.188 889.371 663.184 880.169 659.177C870.967 655.169 862.953 649.752 856.126 642.925C849.299 635.949 843.881 627.861 839.874 618.659C836.015 609.457 834.086 599.587 834.086 589.05C834.086 578.512 836.015 568.642 839.874 559.44C843.881 550.238 849.299 542.224 856.126 535.397C862.953 528.57 870.967 523.227 880.169 519.368C889.371 515.36 899.241 513.357 909.779 513.357H1032.89V573.911H909.779C905.623 573.911 902.061 575.395 899.093 578.364C896.124 581.332 894.64 584.894 894.64 589.05C894.64 593.354 896.124 597.064 899.093 600.181C902.061 603.149 905.623 604.633 909.779 604.633H973.004C983.394 604.633 993.189 606.414 1002.39 609.976C1011.59 613.39 1019.61 618.214 1026.43 624.447C1033.26 630.681 1038.68 638.176 1042.69 646.932C1046.69 655.689 1048.7 665.262 1048.7 675.651C1048.7 686.189 1046.69 696.058 1042.69 705.26C1038.68 714.314 1033.26 722.328 1026.43 729.304C1019.61 736.131 1011.59 741.548 1002.39 745.555C993.189 749.414 983.394 751.344 973.004 751.344ZM1223.55 751.344C1208.85 751.344 1195.05 748.598 1182.14 743.107C1169.23 737.467 1157.87 729.823 1148.08 720.176C1138.43 710.381 1130.79 699.027 1125.15 686.114C1119.66 673.202 1116.91 659.399 1116.91 644.706V573.911H1087.3V513.357H1116.91V418.073H1177.46V513.357H1269.63V573.911H1177.46V644.706C1177.46 651.088 1178.65 657.099 1181.03 662.739C1183.4 668.23 1186.67 673.054 1190.82 677.209C1194.98 681.365 1199.87 684.704 1205.51 687.228C1211.15 689.602 1217.17 690.79 1223.55 690.79H1269.63V751.344H1223.55ZM1387.49 751.344H1326.71V512.912H1341.41L1361.44 541.185C1371.24 532.28 1382.37 525.453 1394.84 520.703C1407.3 515.806 1420.21 513.357 1433.57 513.357H1487.23V573.911H1433.57C1427.19 573.911 1421.18 575.098 1415.54 577.473C1409.9 579.848 1405 583.113 1400.85 587.269C1396.69 591.424 1393.43 596.322 1391.05 601.962C1388.68 607.602 1387.49 613.613 1387.49 619.995V751.344ZM1609.98 448.127C1609.98 453.767 1608.87 459.036 1606.64 463.934C1604.56 468.832 1601.67 473.136 1597.96 476.846C1594.25 480.408 1589.87 483.302 1584.82 485.529C1579.93 487.606 1574.66 488.645 1569.02 488.645C1563.38 488.645 1558.04 487.606 1552.99 485.529C1548.09 483.302 1543.79 480.408 1540.08 476.846C1536.51 473.136 1533.62 468.832 1531.39 463.934C1529.32 459.036 1528.28 453.767 1528.28 448.127C1528.28 442.636 1529.32 437.441 1531.39 432.544C1533.62 427.497 1536.51 423.193 1540.08 419.631C1543.79 415.921 1548.09 413.027 1552.99 410.949C1558.04 408.723 1563.38 407.61 1569.02 407.61C1574.66 407.61 1579.93 408.723 1584.82 410.949C1589.87 413.027 1594.25 415.921 1597.96 419.631C1601.67 423.193 1604.56 427.497 1606.64 432.544C1608.87 437.441 1609.98 442.636 1609.98 448.127ZM1599.52 751.344H1538.3V512.912H1599.52V751.344ZM1899.26 751.344H1884.57L1860.97 718.618C1855.18 723.812 1849.02 728.71 1842.49 733.311C1836.11 737.764 1829.36 741.697 1822.23 745.11C1815.11 748.375 1807.76 750.973 1800.19 752.902C1792.77 754.832 1785.2 755.796 1777.48 755.796C1760.71 755.796 1744.91 752.68 1730.07 746.446C1715.37 740.064 1702.46 731.307 1691.33 720.176C1680.35 708.896 1671.66 695.613 1665.28 680.326C1658.9 664.891 1655.71 648.12 1655.71 630.013C1655.71 612.054 1658.9 595.357 1665.28 579.922C1671.66 564.487 1680.35 551.129 1691.33 539.849C1702.46 528.57 1715.37 519.739 1730.07 513.357C1744.91 506.975 1760.71 503.784 1777.48 503.784C1782.83 503.784 1788.32 504.229 1793.96 505.12C1799.75 506.01 1805.31 507.494 1810.66 509.572C1816.15 511.502 1821.27 514.099 1826.02 517.364C1830.77 520.629 1834.77 524.636 1838.04 529.386V418.073H1899.26V751.344ZM1838.04 630.013C1838.04 621.701 1836.41 613.687 1833.14 605.969C1830.02 598.103 1825.72 591.202 1820.23 585.265C1814.74 579.18 1808.28 574.356 1800.86 570.794C1793.59 567.084 1785.8 565.229 1777.48 565.229C1769.17 565.229 1761.31 566.713 1753.89 569.681C1746.61 572.649 1740.23 576.954 1734.74 582.593C1729.4 588.085 1725.17 594.838 1722.05 602.852C1718.93 610.867 1717.38 619.92 1717.38 630.013C1717.38 638.769 1718.93 647.081 1722.05 654.947C1725.17 662.813 1729.4 669.714 1734.74 675.651C1740.23 681.588 1746.61 686.263 1753.89 689.676C1761.31 693.09 1769.17 694.797 1777.48 694.797C1785.8 694.797 1793.59 693.016 1800.86 689.454C1808.28 685.743 1814.74 680.92 1820.23 674.983C1825.72 668.898 1830.02 661.997 1833.14 654.279C1836.41 646.413 1838.04 638.324 1838.04 630.013ZM2230.84 591.721C2230.84 606.414 2228.91 620.588 2225.05 634.243C2221.34 647.749 2216 660.438 2209.02 672.312C2202.05 684.037 2193.74 694.797 2184.09 704.592C2174.44 714.239 2163.68 722.551 2151.81 729.526C2139.93 736.502 2127.17 741.919 2113.52 745.778C2100.01 749.489 2085.91 751.344 2071.22 751.344H1975.04V432.098H2071.22C2085.91 432.098 2100.01 434.028 2113.52 437.887C2127.17 441.597 2139.93 446.94 2151.81 453.916C2163.68 460.891 2174.44 469.277 2184.09 479.072C2193.74 488.72 2202.05 499.48 2209.02 511.353C2216 523.078 2221.34 535.768 2225.05 549.422C2228.91 562.928 2230.84 577.028 2230.84 591.721ZM2166.95 591.721C2166.95 578.512 2164.42 566.119 2159.38 554.543C2154.48 542.966 2147.65 532.874 2138.9 524.265C2130.29 515.509 2120.12 508.607 2108.4 503.561C2096.82 498.515 2084.43 495.992 2071.22 495.992H2039.38V687.45H2071.22C2084.43 687.45 2096.82 685.001 2108.4 680.103C2120.12 675.057 2130.29 668.23 2138.9 659.622C2147.65 650.865 2154.48 640.699 2159.38 629.122C2164.42 617.397 2166.95 604.93 2166.95 591.721ZM2484.05 623.779V559.886C2484.05 551.129 2482.35 542.892 2478.93 535.174C2475.67 527.308 2471.14 520.481 2465.35 514.693C2459.57 508.904 2452.74 504.378 2444.87 501.112C2437.15 497.699 2428.92 495.992 2420.16 495.992C2411.4 495.992 2403.09 497.699 2395.23 501.112C2387.51 504.378 2380.76 508.904 2374.97 514.693C2369.18 520.481 2364.58 527.308 2361.17 535.174C2357.9 542.892 2356.27 551.129 2356.27 559.886V623.779H2484.05ZM2547.95 751.344H2484.05V687.45H2356.27V751.344H2292.6V559.886C2292.6 542.224 2295.94 525.675 2302.61 510.24C2309.29 494.656 2318.35 481.076 2329.77 469.499C2341.35 457.923 2354.86 448.795 2370.29 442.117C2385.88 435.438 2402.5 432.098 2420.16 432.098C2437.82 432.098 2454.37 435.438 2469.81 442.117C2485.39 448.795 2498.97 457.923 2510.55 469.499C2522.12 481.076 2531.25 494.656 2537.93 510.24C2544.61 525.675 2547.95 542.224 2547.95 559.886V751.344ZM2938.97 593.057C2938.97 608.195 2936.96 622.814 2932.96 636.914C2929.1 650.865 2923.61 664 2916.48 676.319C2909.36 688.489 2900.75 699.62 2890.66 709.713C2880.57 719.805 2869.43 728.488 2857.26 735.76C2845.09 742.884 2831.96 748.375 2817.86 752.234C2803.76 756.242 2789.14 758.245 2774 758.245C2758.86 758.245 2744.24 756.242 2730.15 752.234C2716.19 748.375 2703.06 742.884 2690.74 735.76C2678.57 728.488 2667.44 719.805 2657.35 709.713C2647.25 699.62 2638.57 688.489 2631.3 676.319C2624.18 664 2618.61 650.865 2614.6 636.914C2610.74 622.814 2608.81 608.195 2608.81 593.057C2608.81 577.918 2610.74 563.299 2614.6 549.2C2618.61 535.1 2624.18 521.965 2631.3 509.795C2638.57 497.625 2647.25 486.493 2657.35 476.401C2667.44 466.309 2678.57 457.7 2690.74 450.576C2703.06 443.452 2716.19 437.961 2730.15 434.102C2744.24 430.095 2758.86 428.091 2774 428.091C2789.14 428.091 2803.76 430.095 2817.86 434.102C2831.96 437.961 2845.09 443.452 2857.26 450.576C2869.43 457.7 2880.57 466.309 2890.66 476.401C2900.75 486.493 2909.36 497.625 2916.48 509.795C2923.61 521.965 2929.1 535.1 2932.96 549.2C2936.96 563.299 2938.97 577.918 2938.97 593.057ZM2875.52 593.057C2875.52 579.106 2872.85 565.971 2867.51 553.652C2862.16 541.185 2854.89 530.425 2845.69 521.371C2836.63 512.169 2825.87 504.897 2813.41 499.554C2801.09 494.211 2787.95 491.539 2774 491.539C2759.9 491.539 2746.69 494.211 2734.38 499.554C2722.06 504.897 2711.3 512.169 2702.09 521.371C2692.89 530.425 2685.62 541.185 2680.28 553.652C2674.93 565.971 2672.26 579.106 2672.26 593.057C2672.26 607.008 2674.93 620.143 2680.28 632.462C2685.62 644.632 2692.89 655.318 2702.09 664.52C2711.3 673.722 2722.06 680.994 2734.38 686.337C2746.69 691.68 2759.9 694.352 2774 694.352C2787.95 694.352 2801.09 691.68 2813.41 686.337C2825.87 680.994 2836.63 673.722 2845.69 664.52C2854.89 655.318 2862.16 644.632 2867.51 632.462C2872.85 620.143 2875.52 607.008 2875.52 593.057Z" fill="black"/>
<path d="M340.951 449.243C378.814 339.725 459.528 242.115 495.152 207C552.557 253.82 613.39 368.326 636.631 419.726C613.56 455.011 562.431 531.687 542.482 556.115C517.545 586.65 487.519 641.103 404.566 729.654C338.204 800.495 294.471 809.045 280.899 804.465C275.301 694.03 293.622 586.141 340.951 449.243Z" fill="black"/>
<path d="M666.148 502.679C700.754 607.719 702.62 748.314 699.227 805.482C661.567 807.009 612.203 805.482 586.248 779.019C560.294 752.555 562.838 692.504 577.088 633.979C588.487 587.159 641.211 526.937 666.148 502.679Z" fill="black"/>
<path d="M703.376 368.425C734.455 386.076 793.25 348.581 823.724 323.443C776.466 368.028 745.077 399.522 756.071 431.601C757.341 434.596 758.06 436.455 758.06 436.455C757.287 434.834 756.625 433.217 756.071 431.601C752.519 423.216 744.653 405.935 736.177 395.659C727.18 384.752 710.305 373.02 703.376 368.425C702.313 367.821 701.282 367.153 700.287 366.417C700.287 366.417 701.445 367.144 703.376 368.425Z" fill="#F9C53A"/>
<path fill-rule="evenodd" clip-rule="evenodd" d="M822.903 322.444L824.612 324.381C800.959 346.696 781.399 365.626 769.108 382.958C756.84 400.256 752.004 415.688 757.28 431.137C757.909 432.622 758.403 433.828 758.741 434.666C758.911 435.089 759.042 435.418 759.13 435.642C759.174 435.754 759.208 435.84 759.231 435.898L759.256 435.964L759.265 435.987L756.894 437.009C756.107 435.36 755.432 433.711 754.865 432.061C751.299 423.65 743.508 406.575 735.181 396.479C726.339 385.76 709.665 374.147 702.699 369.524C701.606 368.901 700.545 368.212 699.519 367.455L700.974 365.321L700.975 365.321L700.989 365.33L701.03 365.356C701.067 365.379 701.121 365.413 701.191 365.458C701.332 365.547 701.539 365.68 701.807 365.852C702.336 366.192 703.1 366.689 704.053 367.321C711.485 371.527 720.657 372.496 730.831 371.096C741.019 369.693 752.106 365.928 763.237 360.804C785.497 350.555 807.719 334.968 822.903 322.444ZM712.651 373.279C720.593 379.023 730.804 387.111 737.174 394.835C743.034 401.938 748.577 412.286 752.639 420.812C751.933 407.975 757.33 395.096 766.999 381.462C776.339 368.293 789.772 354.266 805.846 338.696C793.3 347.562 778.833 356.469 764.318 363.152C753.055 368.337 741.712 372.207 731.183 373.656C724.653 374.555 718.395 374.528 712.651 373.279Z" fill="#F9C53A"/>
<path d="M294.656 482.69L367.449 447.614C346.706 448.771 206.429 497.097 172.875 557.088C130.933 632.077 198.423 634.317 275.099 631.81C351.775 629.303 529.021 541.503 573.074 513.939C608.315 491.887 693.735 420.488 720.14 400.389C704.581 409.518 660.205 436.654 607.18 472.161C540.899 516.544 311.599 603.64 236.139 587.925C175.771 575.353 265.455 505.144 294.656 482.69Z" fill="#F9C53A"/>
</svg>
