<svg width="1200" height="1500" viewBox="0 0 1200 1500" fill="none" xmlns="http://www.w3.org/2000/svg">
<g filter="url(#filter0_d_689_711)">
<g filter="url(#filter1_d_689_711)">
<path d="M340.115 520.353C399.566 348.395 526.297 195.135 582.231 140C672.365 213.514 767.88 393.303 804.371 474.008C768.147 529.409 687.868 649.801 656.545 688.156C617.391 736.1 570.246 821.599 439.999 960.636C335.801 1071.87 267.135 1085.29 245.826 1078.1C237.037 904.702 265.803 735.301 340.115 520.353Z" fill="black"/>
<path d="M850.716 604.255C905.053 769.181 907.983 989.935 902.656 1079.7C843.525 1082.09 766.016 1079.7 725.264 1038.15C684.512 996.594 688.507 902.305 710.881 810.413C728.78 736.899 811.562 642.343 850.716 604.255Z" fill="black"/>
</g>
<path d="M909.17 388.463C957.968 416.177 1050.28 357.305 1098.13 317.835C1023.93 387.84 974.646 437.29 991.909 487.657C993.902 492.359 995.03 495.28 995.03 495.28C993.817 492.735 992.779 490.195 991.909 487.657C986.33 474.492 973.981 447.359 960.672 431.224C946.545 414.099 920.049 395.678 909.17 388.463C907.501 387.515 905.883 386.465 904.319 385.311C904.319 385.311 906.138 386.451 909.17 388.463Z" fill="#F9C53A"/>
<g filter="url(#filter2_d_689_711)">
<path fill-rule="evenodd" clip-rule="evenodd" d="M1096.84 316.268L1099.53 319.31C1062.39 354.347 1031.68 384.069 1012.38 411.283C993.115 438.443 985.522 462.674 993.806 486.93C994.794 489.263 995.569 491.156 996.099 492.471C996.367 493.135 996.572 493.652 996.711 494.004C996.78 494.18 996.833 494.314 996.869 494.406L996.909 494.509L996.923 494.546L993.199 496.151C991.965 493.562 990.904 490.973 990.013 488.382C984.414 475.176 972.183 448.365 959.107 432.514C945.224 415.683 919.045 397.449 908.107 390.19C906.39 389.212 904.724 388.131 903.114 386.941L905.398 383.59L905.4 383.591L905.421 383.605L905.487 383.646C905.544 383.682 905.628 383.736 905.739 383.806C905.96 383.946 906.286 384.154 906.706 384.425C907.536 384.959 908.736 385.738 910.233 386.731C921.902 393.335 936.303 394.857 952.277 392.658C968.274 390.456 985.683 384.544 1003.16 376.498C1038.11 360.407 1073 335.933 1096.84 316.268ZM923.732 396.086C936.202 405.104 952.235 417.805 962.237 429.931C971.438 441.085 980.141 457.332 986.519 470.719C985.41 450.564 993.885 430.342 1009.07 408.935C1023.73 388.258 1044.82 366.234 1070.06 341.787C1050.36 355.706 1027.65 369.692 1004.86 380.185C987.172 388.326 969.362 394.403 952.83 396.678C942.577 398.09 932.752 398.047 923.732 396.086Z" fill="#F9C53A"/>
</g>
<g filter="url(#filter3_d_689_711)">
<path d="M269.127 573.161L290.581 556.638C258.077 570.324 120.607 618.624 77.6853 689.92C8.10938 805.489 117.847 811.121 238.383 807.187C358.92 803.253 637.554 665.461 706.806 622.203C762.207 587.596 896.488 475.543 937.998 444C913.538 458.328 843.778 500.914 760.422 556.638C656.226 626.292 295.762 762.977 177.137 738.314C82.2377 718.584 223.223 608.401 269.127 573.161Z" fill="#F9C53A"/>
</g>
</g>
<g filter="url(#filter4_d_689_711)">
<path d="M308.686 1274.37V1257.02C308.686 1254.64 308.223 1252.41 307.296 1250.31C306.41 1248.18 305.181 1246.32 303.609 1244.75C302.038 1243.18 300.185 1241.95 298.049 1241.07C295.954 1240.14 293.718 1239.68 291.34 1239.68C288.963 1239.68 286.707 1240.14 284.571 1241.07C282.476 1241.95 280.643 1243.18 279.071 1244.75C277.5 1246.32 276.251 1248.18 275.324 1250.31C274.437 1252.41 273.994 1254.64 273.994 1257.02V1274.37H308.686ZM326.032 1309H308.686V1291.65H273.994V1309H256.709V1257.02C256.709 1252.23 257.615 1247.73 259.428 1243.54C261.242 1239.31 263.699 1235.63 266.802 1232.48C269.945 1229.34 273.611 1226.86 277.802 1225.05C282.033 1223.24 286.545 1222.33 291.34 1222.33C296.135 1222.33 300.628 1223.24 304.818 1225.05C309.049 1226.86 312.736 1229.34 315.879 1232.48C319.021 1235.63 321.499 1239.31 323.313 1243.54C325.126 1247.73 326.032 1252.23 326.032 1257.02V1309ZM378.581 1309H340.867V1292.56H378.581C379.709 1292.56 380.676 1292.16 381.482 1291.35C382.288 1290.55 382.691 1289.58 382.691 1288.45C382.691 1287.28 382.288 1286.52 381.482 1286.15C380.676 1285.79 379.709 1285.61 378.581 1285.61H361.416C358.555 1285.61 355.876 1285.07 353.378 1283.98C350.879 1282.89 348.704 1281.42 346.85 1279.57C344.997 1277.67 343.526 1275.48 342.438 1272.98C341.39 1270.48 340.867 1267.8 340.867 1264.94C340.867 1262.08 341.39 1259.4 342.438 1256.9C343.526 1254.4 344.997 1252.23 346.85 1250.37C348.704 1248.52 350.879 1247.07 353.378 1246.02C355.876 1244.93 358.555 1244.39 361.416 1244.39H394.839V1260.83H361.416C360.288 1260.83 359.321 1261.23 358.515 1262.04C357.709 1262.84 357.306 1263.81 357.306 1264.94C357.306 1266.11 357.709 1267.12 358.515 1267.96C359.321 1268.77 360.288 1269.17 361.416 1269.17H378.581C381.401 1269.17 384.06 1269.65 386.559 1270.62C389.057 1271.55 391.233 1272.86 393.086 1274.55C394.94 1276.24 396.41 1278.28 397.498 1280.65C398.586 1283.03 399.13 1285.63 399.13 1288.45C399.13 1291.31 398.586 1293.99 397.498 1296.49C396.41 1298.95 394.94 1301.12 393.086 1303.02C391.233 1304.87 389.057 1306.34 386.559 1307.43C384.06 1308.48 381.401 1309 378.581 1309ZM444.123 1309C440.134 1309 436.387 1308.25 432.882 1306.76C429.376 1305.23 426.294 1303.16 423.634 1300.54C421.015 1297.88 418.94 1294.8 417.409 1291.29C415.918 1287.79 415.173 1284.04 415.173 1280.05V1260.83H407.135V1244.39H415.173V1218.52H431.612V1244.39H456.634V1260.83H431.612V1280.05C431.612 1281.78 431.935 1283.41 432.579 1284.95C433.224 1286.44 434.111 1287.75 435.239 1288.87C436.367 1290 437.697 1290.91 439.228 1291.59C440.759 1292.24 442.391 1292.56 444.123 1292.56H456.634V1309H444.123ZM486.155 1309H469.655V1244.27H473.644L479.084 1251.95C481.743 1249.53 484.765 1247.67 488.15 1246.38C491.534 1245.06 495.04 1244.39 498.666 1244.39H513.232V1260.83H498.666C496.934 1260.83 495.302 1261.15 493.771 1261.8C492.239 1262.44 490.91 1263.33 489.782 1264.46C488.653 1265.58 487.767 1266.91 487.122 1268.45C486.478 1269.98 486.155 1271.61 486.155 1273.34V1309ZM544.083 1226.68C544.083 1228.21 543.78 1229.64 543.176 1230.97C542.612 1232.3 541.826 1233.47 540.819 1234.48C539.812 1235.45 538.623 1236.23 537.253 1236.84C535.923 1237.4 534.493 1237.68 532.962 1237.68C531.431 1237.68 529.98 1237.4 528.61 1236.84C527.28 1236.23 526.112 1235.45 525.105 1234.48C524.138 1233.47 523.352 1232.3 522.748 1230.97C522.183 1229.64 521.901 1228.21 521.901 1226.68C521.901 1225.19 522.183 1223.78 522.748 1222.45C523.352 1221.08 524.138 1219.91 525.105 1218.95C526.112 1217.94 527.28 1217.15 528.61 1216.59C529.98 1215.98 531.431 1215.68 532.962 1215.68C534.493 1215.68 535.923 1215.98 537.253 1216.59C538.623 1217.15 539.812 1217.94 540.819 1218.95C541.826 1219.91 542.612 1221.08 543.176 1222.45C543.78 1223.78 544.083 1225.19 544.083 1226.68ZM541.242 1309H524.621V1244.27H541.242V1309ZM620.142 1309H616.153L609.746 1300.12C608.175 1301.53 606.503 1302.86 604.73 1304.1C602.997 1305.31 601.164 1306.38 599.23 1307.31C597.296 1308.19 595.301 1308.9 593.246 1309.42C591.232 1309.95 589.177 1310.21 587.081 1310.21C582.528 1310.21 578.237 1309.36 574.208 1307.67C570.219 1305.94 566.713 1303.56 563.691 1300.54C560.71 1297.48 558.353 1293.87 556.62 1289.72C554.888 1285.53 554.021 1280.98 554.021 1276.06C554.021 1271.19 554.888 1266.65 556.62 1262.46C558.353 1258.27 560.71 1254.64 563.691 1251.58C566.713 1248.52 570.219 1246.12 574.208 1244.39C578.237 1242.66 582.528 1241.79 587.081 1241.79C588.532 1241.79 590.023 1241.91 591.554 1242.15C593.125 1242.4 594.636 1242.8 596.087 1243.36C597.578 1243.89 598.968 1244.59 600.257 1245.48C601.547 1246.36 602.634 1247.45 603.521 1248.74V1218.52H620.142V1309ZM603.521 1276.06C603.521 1273.8 603.078 1271.63 602.191 1269.53C601.345 1267.4 600.177 1265.52 598.686 1263.91C597.195 1262.26 595.442 1260.95 593.428 1259.98C591.453 1258.98 589.338 1258.47 587.081 1258.47C584.825 1258.47 582.69 1258.88 580.675 1259.68C578.701 1260.49 576.968 1261.66 575.477 1263.19C574.027 1264.68 572.878 1266.51 572.032 1268.69C571.186 1270.86 570.763 1273.32 570.763 1276.06C570.763 1278.44 571.186 1280.69 572.032 1282.83C572.878 1284.97 574.027 1286.84 575.477 1288.45C576.968 1290.06 578.701 1291.33 580.675 1292.26C582.69 1293.19 584.825 1293.65 587.081 1293.65C589.338 1293.65 591.453 1293.16 593.428 1292.2C595.442 1291.19 597.195 1289.88 598.686 1288.27C600.177 1286.62 601.345 1284.74 602.191 1282.65C603.078 1280.51 603.521 1278.32 603.521 1276.06ZM707.684 1265.67C707.684 1269.65 707.161 1273.5 706.113 1277.21C705.106 1280.88 703.655 1284.32 701.761 1287.54C699.868 1290.73 697.611 1293.65 694.992 1296.31C692.373 1298.93 689.452 1301.18 686.228 1303.08C683.005 1304.97 679.54 1306.44 675.833 1307.49C672.166 1308.5 668.338 1309 664.349 1309H638.24V1222.33H664.349C668.338 1222.33 672.166 1222.85 675.833 1223.9C679.54 1224.91 683.005 1226.36 686.228 1228.25C689.452 1230.15 692.373 1232.42 694.992 1235.08C697.611 1237.7 699.868 1240.62 701.761 1243.85C703.655 1247.03 705.106 1250.47 706.113 1254.18C707.161 1257.85 707.684 1261.68 707.684 1265.67ZM690.338 1265.67C690.338 1262.08 689.653 1258.71 688.283 1255.57C686.954 1252.43 685.1 1249.69 682.723 1247.35C680.386 1244.97 677.626 1243.1 674.443 1241.73C671.3 1240.36 667.935 1239.68 664.349 1239.68H655.707V1291.65H664.349C667.935 1291.65 671.3 1290.99 674.443 1289.66C677.626 1288.29 680.386 1286.44 682.723 1284.1C685.1 1281.72 686.954 1278.96 688.283 1275.82C689.653 1272.64 690.338 1269.25 690.338 1265.67ZM773.952 1274.37V1257.02C773.952 1254.64 773.489 1252.41 772.562 1250.31C771.676 1248.18 770.447 1246.32 768.875 1244.75C767.304 1243.18 765.451 1241.95 763.315 1241.07C761.22 1240.14 758.984 1239.68 756.606 1239.68C754.229 1239.68 751.973 1240.14 749.837 1241.07C747.742 1241.95 745.908 1243.18 744.337 1244.75C742.766 1246.32 741.517 1248.18 740.59 1250.31C739.703 1252.41 739.26 1254.64 739.26 1257.02V1274.37H773.952ZM791.298 1309H773.952V1291.65H739.26V1309H721.975V1257.02C721.975 1252.23 722.881 1247.73 724.694 1243.54C726.507 1239.31 728.965 1235.63 732.068 1232.48C735.211 1229.34 738.877 1226.86 743.068 1225.05C747.299 1223.24 751.811 1222.33 756.606 1222.33C761.401 1222.33 765.894 1223.24 770.084 1225.05C774.315 1226.86 778.002 1229.34 781.145 1232.48C784.287 1235.63 786.765 1239.31 788.579 1243.54C790.392 1247.73 791.298 1252.23 791.298 1257.02V1309ZM894.978 1266.03C894.978 1270.14 894.434 1274.11 893.346 1277.93C892.299 1281.72 890.808 1285.29 888.874 1288.63C886.94 1291.94 884.603 1294.96 881.863 1297.7C879.123 1300.44 876.101 1302.79 872.797 1304.77C869.493 1306.7 865.927 1308.19 862.099 1309.24C858.271 1310.33 854.303 1310.87 850.193 1310.87C846.083 1310.87 842.114 1310.33 838.286 1309.24C834.499 1308.19 830.933 1306.7 827.588 1304.77C824.284 1302.79 821.263 1300.44 818.523 1297.7C815.783 1294.96 813.426 1291.94 811.451 1288.63C809.517 1285.29 808.006 1281.72 806.918 1277.93C805.871 1274.11 805.347 1270.14 805.347 1266.03C805.347 1261.92 805.871 1257.95 806.918 1254.12C808.006 1250.29 809.517 1246.73 811.451 1243.42C813.426 1240.12 815.783 1237.1 818.523 1234.36C821.263 1231.62 824.284 1229.28 827.588 1227.35C830.933 1225.41 834.499 1223.92 838.286 1222.87C842.114 1221.79 846.083 1221.24 850.193 1221.24C854.303 1221.24 858.271 1221.79 862.099 1222.87C865.927 1223.92 869.493 1225.41 872.797 1227.35C876.101 1229.28 879.123 1231.62 881.863 1234.36C884.603 1237.1 886.94 1240.12 888.874 1243.42C890.808 1246.73 892.299 1250.29 893.346 1254.12C894.434 1257.95 894.978 1261.92 894.978 1266.03ZM877.753 1266.03C877.753 1262.24 877.028 1258.67 875.577 1255.33C874.127 1251.95 872.152 1249.02 869.654 1246.57C867.196 1244.07 864.275 1242.09 860.891 1240.64C857.546 1239.19 853.98 1238.47 850.193 1238.47C846.365 1238.47 842.779 1239.19 839.435 1240.64C836.09 1242.09 833.169 1244.07 830.671 1246.57C828.173 1249.02 826.198 1251.95 824.748 1255.33C823.297 1258.67 822.572 1262.24 822.572 1266.03C822.572 1269.82 823.297 1273.38 824.748 1276.73C826.198 1280.03 828.173 1282.93 830.671 1285.43C833.169 1287.93 836.09 1289.9 839.435 1291.35C842.779 1292.8 846.365 1293.53 850.193 1293.53C853.98 1293.53 857.546 1292.8 860.891 1291.35C864.275 1289.9 867.196 1287.93 869.654 1285.43C872.152 1282.93 874.127 1280.03 875.577 1276.73C877.028 1273.38 877.753 1269.82 877.753 1266.03Z" fill="black"/>
</g>
<defs>
<filter id="filter0_d_689_711" x="48" y="132" width="1075.53" height="972.338" filterUnits="userSpaceOnUse" color-interpolation-filters="sRGB">
<feFlood flood-opacity="0" result="BackgroundImageFix"/>
<feColorMatrix in="SourceAlpha" type="matrix" values="0 0 0 0 0 0 0 0 0 0 0 0 0 0 0 0 0 0 127 0" result="hardAlpha"/>
<feOffset dx="8" dy="8"/>
<feGaussianBlur stdDeviation="8"/>
<feComposite in2="hardAlpha" operator="out"/>
<feColorMatrix type="matrix" values="0 0 0 0 0 0 0 0 0 0 0 0 0 0 0 0 0 0 0.25 0"/>
<feBlend mode="normal" in2="BackgroundImageFix" result="effect1_dropShadow_689_711"/>
<feBlend mode="normal" in="SourceGraphic" in2="effect1_dropShadow_689_711" result="shape"/>
</filter>
<filter id="filter1_d_689_711" x="214.296" y="110" width="780.224" height="1060.34" filterUnits="userSpaceOnUse" color-interpolation-filters="sRGB">
<feFlood flood-opacity="0" result="BackgroundImageFix"/>
<feColorMatrix in="SourceAlpha" type="matrix" values="0 0 0 0 0 0 0 0 0 0 0 0 0 0 0 0 0 0 127 0" result="hardAlpha"/>
<feOffset dx="30" dy="30"/>
<feGaussianBlur stdDeviation="30"/>
<feComposite in2="hardAlpha" operator="out"/>
<feColorMatrix type="matrix" values="0 0 0 0 0 0 0 0 0 0 0 0 0 0 0 0 0 0 0.25 0"/>
<feBlend mode="normal" in2="BackgroundImageFix" result="effect1_dropShadow_689_711"/>
<feBlend mode="normal" in="SourceGraphic" in2="effect1_dropShadow_689_711" result="shape"/>
</filter>
<filter id="filter2_d_689_711" x="873.114" y="286.269" width="316.411" height="299.883" filterUnits="userSpaceOnUse" color-interpolation-filters="sRGB">
<feFlood flood-opacity="0" result="BackgroundImageFix"/>
<feColorMatrix in="SourceAlpha" type="matrix" values="0 0 0 0 0 0 0 0 0 0 0 0 0 0 0 0 0 0 127 0" result="hardAlpha"/>
<feOffset dx="30" dy="30"/>
<feGaussianBlur stdDeviation="30"/>
<feComposite in2="hardAlpha" operator="out"/>
<feColorMatrix type="matrix" values="0 0 0 0 0 0 0 0 0 0 0 0 0 0 0 0 0 0 0.25 0"/>
<feBlend mode="normal" in2="BackgroundImageFix" result="effect1_dropShadow_689_711"/>
<feBlend mode="normal" in="SourceGraphic" in2="effect1_dropShadow_689_711" result="shape"/>
</filter>
<filter id="filter3_d_689_711" x="26" y="414" width="1002" height="484.018" filterUnits="userSpaceOnUse" color-interpolation-filters="sRGB">
<feFlood flood-opacity="0" result="BackgroundImageFix"/>
<feColorMatrix in="SourceAlpha" type="matrix" values="0 0 0 0 0 0 0 0 0 0 0 0 0 0 0 0 0 0 127 0" result="hardAlpha"/>
<feOffset dx="30" dy="30"/>
<feGaussianBlur stdDeviation="30"/>
<feComposite in2="hardAlpha" operator="out"/>
<feColorMatrix type="matrix" values="0 0 0 0 0 0 0 0 0 0 0 0 0 0 0 0 0 0 0.25 0"/>
<feBlend mode="normal" in2="BackgroundImageFix" result="effect1_dropShadow_689_711"/>
<feBlend mode="normal" in="SourceGraphic" in2="effect1_dropShadow_689_711" result="shape"/>
</filter>
<filter id="filter4_d_689_711" x="226.709" y="1185.68" width="758.27" height="215.191" filterUnits="userSpaceOnUse" color-interpolation-filters="sRGB">
<feFlood flood-opacity="0" result="BackgroundImageFix"/>
<feColorMatrix in="SourceAlpha" type="matrix" values="0 0 0 0 0 0 0 0 0 0 0 0 0 0 0 0 0 0 127 0" result="hardAlpha"/>
<feOffset dx="30" dy="30"/>
<feGaussianBlur stdDeviation="30"/>
<feComposite in2="hardAlpha" operator="out"/>
<feColorMatrix type="matrix" values="0 0 0 0 0 0 0 0 0 0 0 0 0 0 0 0 0 0 0.25 0"/>
<feBlend mode="normal" in2="BackgroundImageFix" result="effect1_dropShadow_689_711"/>
<feBlend mode="normal" in="SourceGraphic" in2="effect1_dropShadow_689_711" result="shape"/>
</filter>
</defs>
</svg>
